<svg id="Ebene_1" data-name="Ebene 1" xmlns="http://www.w3.org/2000/svg" viewBox="0 0 624 302"><title>Zeichenfläche 1</title><path d="M93.94,25.65a131,131,0,0,1,15.19.81A62.39,62.39,0,0,1,121,28.87a26.62,26.62,0,0,1,7.82,3.8c1.92,1.46,2.88,3.1,2.88,4.94a15.79,15.79,0,0,1-.81,4.49q-.81,2.64-1.95,5.4A60.3,60.3,0,0,1,126.28,53a37.46,37.46,0,0,1-2.87,4.6,1.23,1.23,0,0,1-1.5-.11,1.06,1.06,0,0,1-.35-1.5q4.83-8.5,2.08-13.11-3.23-5.28-12.9-9.08A60.81,60.81,0,0,0,88.41,30a75.3,75.3,0,0,0-30.16,5.87A67.53,67.53,0,0,0,34.88,52.45a76,76,0,0,0-15.2,25.41,93.35,93.35,0,0,0-5.41,32.43,78.69,78.69,0,0,0,3.45,23.81A54.35,54.35,0,0,0,27.84,153a46.79,46.79,0,0,0,16.33,12.42,51.87,51.87,0,0,0,22.08,4.48q16.56,0,27.6-10.23t15.64-27.26a1.24,1.24,0,0,1,1.5-.92,1.25,1.25,0,0,1,1,1.38,94.88,94.88,0,0,1-2.76,10.7q-1.85,5.86-3.91,11t-4,9q-2,3.79-3.34,4.25a93.41,93.41,0,0,1-16.33,4.37,107.37,107.37,0,0,1-19.09,1.61,70.14,70.14,0,0,1-25.18-4.25,53.74,53.74,0,0,1-18.86-11.85A51.92,51.92,0,0,1,6.68,139.73a59.49,59.49,0,0,1-4.14-22.31A93.52,93.52,0,0,1,9.22,82.35,89.54,89.54,0,0,1,28,53.14a90.33,90.33,0,0,1,66-27.49Z"/><path d="M176.88,159.28a.84.84,0,0,1,1.15,0,1.17,1.17,0,0,1,.46,1.38,40.48,40.48,0,0,1-9.55,9.89q-4.71,3.22-7.93,3.22a3.81,3.81,0,0,1-3.34-2.07,13.3,13.3,0,0,1-1.61-5.63,36.48,36.48,0,0,1,.23-8,64.19,64.19,0,0,1,2-9.32,103.64,103.64,0,0,1-13.11,16.68q-6.9,7-13.34,8.39-4.14,0-7-4t-2.87-12.54a38.93,38.93,0,0,1,3.1-15.06,49.52,49.52,0,0,1,8.4-13.57,42.81,42.81,0,0,1,12.19-9.78,30.41,30.41,0,0,1,14.49-3.68,24.5,24.5,0,0,1,7.13.92,19.05,19.05,0,0,1,5.52,2.76,15.68,15.68,0,0,1,3.79-2.18,11.53,11.53,0,0,1,4.49-1c.77,0,1,.39.69,1.15A71.3,71.3,0,0,0,172.63,131a91.44,91.44,0,0,0-5.87,15.18,79,79,0,0,0-2.65,13c-.38,3.76-.11,6.32.81,7.7q1.16,1.62,4.14.12T176.88,159.28Zm-40,6.67c1.69,0,3.87-1.18,6.55-3.56a64.27,64.27,0,0,0,8.4-9.32,130.69,130.69,0,0,0,8.62-13,138.12,138.12,0,0,0,7.48-14.61,8.35,8.35,0,0,0-4.26-4.83,15.74,15.74,0,0,0-7.7-1.84,18.58,18.58,0,0,0-9.55,2.65,26.6,26.6,0,0,0-7.93,7.36A38.85,38.85,0,0,0,133,140a46.47,46.47,0,0,0-2.07,14.26,18.17,18.17,0,0,0,1.72,8.4Q134.32,166,136.86,166Z"/><path d="M289.12,6.56a13.88,13.88,0,0,1,7.36,1.84A11.87,11.87,0,0,1,301,13.23a14.44,14.44,0,0,1,1.5,6.56,16.45,16.45,0,0,1-1.61,7,.93.93,0,0,1-1.15.46,2.18,2.18,0,0,1-1.15-.92,12.79,12.79,0,0,0-4.26-8.16q-3.8-3.57-11.84-3.57a32.83,32.83,0,0,0-16.68,4.6q-7.93,4.61-16.1,16.1T233.11,66.36q-8.4,19.56-18.05,49.45,5.28-.23,11.15-.23h12.08c.76.31,1.11.73,1,1.27s-.8,1-2.18,1.26l-11.5.46q-5.76.24-11.73.69a32.45,32.45,0,0,1-1.61,4.6Q202.86,154,193,174.35T172.74,207q-10.35,12.3-21.05,17.48A49.4,49.4,0,0,1,130,229.66q-7.82,0-11.16-3.45a11.22,11.22,0,0,1-3.33-8.05,12.71,12.71,0,0,1,.92-4.48,17.3,17.3,0,0,1,2.3-4.26c.46-.46.88-.54,1.26-.23a1.41,1.41,0,0,1,.58,1.15,7.79,7.79,0,0,0-.69,4.26,8.67,8.67,0,0,0,2,4.6,13.26,13.26,0,0,0,5.06,3.68,21.4,21.4,0,0,0,8.63,1.49A43.94,43.94,0,0,0,146.4,223a33.07,33.07,0,0,0,10.81-5.17A52.18,52.18,0,0,0,168,207.12a114.7,114.7,0,0,0,11.16-18.05,293.52,293.52,0,0,0,12-27q6.21-15.87,12.88-37.72a15.51,15.51,0,0,0,.69-2.18,13.67,13.67,0,0,1,.69-2.19q-3.92.47-7.82,1t-7.82,1.49c-.77-.15-1-.53-.58-1.15a6.3,6.3,0,0,1,2.07-1.84,22.92,22.92,0,0,1,3.57-1.72,16.63,16.63,0,0,1,3.91-1c1.22-.15,2.49-.26,3.79-.34s2.65-.19,4-.35a402,402,0,0,1,17.82-45,209.22,209.22,0,0,1,20.13-34.5q10.58-14.37,21.85-22.2T289.12,6.56Z"/><path d="M265.66,125a8.72,8.72,0,0,1-2.53,6,23.65,23.65,0,0,1-6.9,4.95,72.33,72.33,0,0,1-10,4q-5.64,1.84-11.84,3.45c-.16,1.69-.27,3.38-.35,5.06s-.11,3.53-.11,5.52a17.36,17.36,0,0,0,2.53,9.66,8,8,0,0,0,7.13,3.91,17,17,0,0,0,8.62-2.3,26.28,26.28,0,0,0,7.25-6.21c.61-.3,1.07-.23,1.38.23a1.55,1.55,0,0,1,0,1.61,37,37,0,0,1-9.78,9.09,22.29,22.29,0,0,1-12.3,3.79,13,13,0,0,1-9.78-3.91q-3.79-3.9-3.79-11.5a46.74,46.74,0,0,1,2.53-14.6,61.34,61.34,0,0,1,6.67-14.15A41.31,41.31,0,0,1,243.92,119a18.44,18.44,0,0,1,11.39-4.14A10.42,10.42,0,0,1,265.66,125Zm-15.18-4.14q-5.29,0-9.43,4.6t-6,14.49q11-1.61,16.21-4.71t5.18-7a8.4,8.4,0,0,0-1.61-5.29A5.25,5.25,0,0,0,250.48,120.87Z"/><path d="M290,210.05q13.11,6,19.09,16.56a43.84,43.84,0,0,1,6,21.85q0,20.94-14.83,33.12T256,293.77q-23.68,0-42.89-7.82a131.05,131.05,0,0,1-35.31-21.39c-.46-.61-.31-1.26.46-1.95a11.79,11.79,0,0,1,2.88-1.84,14.45,14.45,0,0,1,3.79-1.15,5.57,5.57,0,0,1,3.45.34,20,20,0,0,0,8.86,5.87,23.65,23.65,0,0,0,10.69.11,26.21,26.21,0,0,0,10.7-4.6,35.3,35.3,0,0,0,9-10.58,115.25,115.25,0,0,0,8.51-18.63q4.24-11.49,9.08-29a154.75,154.75,0,0,1,11.62-29.9,77.55,77.55,0,0,1,16.44-21.62,19.45,19.45,0,0,0-4.14-.46h-4.6a53.28,53.28,0,0,0-15.06,2.19,57.15,57.15,0,0,0-14.15,6.32,53.86,53.86,0,0,0-20.7,23.69.76.76,0,0,1-1,.12c-.39-.23-.5-.65-.35-1.27a48.72,48.72,0,0,1,8.4-13.8,60.69,60.69,0,0,1,13.45-11.73,70,70,0,0,1,17.6-8.05,71.67,71.67,0,0,1,21-3h3.57a29.37,29.37,0,0,1,3.56.23,58.12,58.12,0,0,1,19.78-8.51c.77,0,1.15.23,1.15.69s-.38.85-1.15,1.15a65,65,0,0,0-7.82,2.88,39.33,39.33,0,0,0-7.36,4.25,59.82,59.82,0,0,1,16,4.49,36.63,36.63,0,0,1,11.15,7.59,29.66,29.66,0,0,1,6.44,9.66,28.52,28.52,0,0,1,2.07,10.69,29.94,29.94,0,0,1-2.64,12.65,31.69,31.69,0,0,1-17,16.33A29.82,29.82,0,0,1,290,210.05Zm-28.75,80.27a55.52,55.52,0,0,0,18.52-2.87,41.66,41.66,0,0,0,13.8-7.82A32.48,32.48,0,0,0,302.12,268,36.28,36.28,0,0,0,305,253.52q0-33.35-34.73-42.55c-.46-.46-.38-1.07.23-1.84a9,9,0,0,1,2.53-2.07,13.27,13.27,0,0,1,3.68-1.38,9.5,9.5,0,0,1,3.45-.23,18,18,0,0,0,3.8,1.27,23.65,23.65,0,0,0,4.48.34,20.6,20.6,0,0,0,8.17-1.72,21.7,21.7,0,0,0,7.13-5,26.74,26.74,0,0,0,5.06-7.47,22.67,22.67,0,0,0,1.95-9.55,28.22,28.22,0,0,0-7.93-19.66q-7.94-8.62-24.5-11.62a81.83,81.83,0,0,0-13.57,19.32A130.35,130.35,0,0,0,254.62,199q-6,21.86-12.3,35.54t-13,21.5q-6.67,7.83-13.8,10.81A40.24,40.24,0,0,1,201,270.08a107.41,107.41,0,0,0,27.37,14.49A94.41,94.41,0,0,0,261.29,290.32Z"/><path d="M354.67,234.89q6.21,0,9.2,4.14t3,10.81a43.55,43.55,0,0,1-3,15.64,61.34,61.34,0,0,1-7.59,14.15,45.37,45.37,0,0,1-10,10.23q-5.4,3.92-10,3.91a10.26,10.26,0,0,1-8.74-4.37Q324.31,285,324.31,277a42.51,42.51,0,0,1,2.53-13.8,58.18,58.18,0,0,1,6.78-13.68A43.93,43.93,0,0,1,343.28,239,18.44,18.44,0,0,1,354.67,234.89Zm-13.8,51.75a11.44,11.44,0,0,0,6.78-2.41,22.93,22.93,0,0,0,5.87-6.44,35.86,35.86,0,0,0,4-9.32,40.21,40.21,0,0,0,1.5-11q0-6.9-2.3-10.92c-1.54-2.68-4.07-4-7.59-4a11,11,0,0,0-6.67,2.42,22.16,22.16,0,0,0-5.64,6.44,35.13,35.13,0,0,0-3.79,9.43,45.84,45.84,0,0,0-1.38,11.38Q331.67,286.64,340.87,286.64Z"/><path d="M434,279.05a1.21,1.21,0,0,1,1.84,1.38,55.82,55.82,0,0,1-8.63,9.32q-4.71,4-8.85,4-7.14,0-7.13-9.2A63,63,0,0,1,414,267.21,113.59,113.59,0,0,1,421.6,248a6.45,6.45,0,0,0,.92-3.22c0-1.68-.77-2.53-2.3-2.53q-8.52,0-18.75,11.73t-19,36.8A3.91,3.91,0,0,1,380,293a10.75,10.75,0,0,1-3.91.8c-1.69,0-2.3-.69-1.84-2.07q3.9-9.88,8.16-22.31t7.48-24.61q.92-4.36-1.61-4.37a6.62,6.62,0,0,0-4.6,2.3,42.38,42.38,0,0,0-4.83,6c-.31.31-.66.23-1-.23a1.38,1.38,0,0,1-.34-1.38,44.71,44.71,0,0,1,6.9-8.05,13.5,13.5,0,0,1,9.43-4.14q5.75,0,3.91,7.82-.93,5.07-2.53,10.7t-3.45,11.15a72.09,72.09,0,0,1,7.59-11.73,63,63,0,0,1,9.08-9.43,48.1,48.1,0,0,1,9.43-6.21,20.34,20.34,0,0,1,8.86-2.3,6,6,0,0,1,4.25,1.38,4.26,4.26,0,0,1,1.5,3.22,14.13,14.13,0,0,1-1.38,6,118.66,118.66,0,0,0-8.17,18.29,53.74,53.74,0,0,0-3.33,17.59c0,3.84,1.22,5.75,3.68,5.75Q428,287.1,434,279.05Z"/><path d="M500.94,279.05a1.21,1.21,0,0,1,1.84,1.38,55.77,55.77,0,0,1-8.62,9.32q-4.73,4-8.86,4-7.12,0-7.13-9.2a63,63,0,0,1,2.76-17.36A113.59,113.59,0,0,1,488.52,248a6.45,6.45,0,0,0,.92-3.22c0-1.68-.77-2.53-2.3-2.53q-8.5,0-18.74,11.73t-19,36.8a3.91,3.91,0,0,1-2.53,2.19,10.71,10.71,0,0,1-3.91.8c-1.69,0-2.3-.69-1.84-2.07q3.92-9.88,8.17-22.31t7.47-24.61c.61-2.91.08-4.37-1.61-4.37a6.64,6.64,0,0,0-4.6,2.3,43.84,43.84,0,0,0-4.83,6c-.31.31-.65.23-1-.23a1.38,1.38,0,0,1-.35-1.38,45.54,45.54,0,0,1,6.9-8.05,13.51,13.51,0,0,1,9.43-4.14q5.74,0,3.91,7.82-.92,5.07-2.53,10.7t-3.45,11.15a73.44,73.44,0,0,1,7.59-11.73,63.06,63.06,0,0,1,9.09-9.43,47.8,47.8,0,0,1,9.43-6.21,20.31,20.31,0,0,1,8.85-2.3,6.07,6.07,0,0,1,4.26,1.38,4.28,4.28,0,0,1,1.49,3.22,14.13,14.13,0,0,1-1.38,6,118.62,118.62,0,0,0-8.16,18.29,53.51,53.51,0,0,0-3.34,17.59c0,3.84,1.23,5.75,3.68,5.75Q495,287.1,500.94,279.05Z"/><path d="M550.39,245a8.68,8.68,0,0,1-2.53,6,23.65,23.65,0,0,1-6.9,4.95,72.17,72.17,0,0,1-10,4q-5.64,1.85-11.85,3.45c-.15,1.69-.27,3.38-.34,5.06s-.12,3.53-.12,5.52a17.36,17.36,0,0,0,2.53,9.66,8,8,0,0,0,7.13,3.91,17.06,17.06,0,0,0,8.63-2.3,26.24,26.24,0,0,0,7.24-6.21c.61-.3,1.07-.23,1.38.23a1.5,1.5,0,0,1,0,1.61,37,37,0,0,1-9.77,9.09,22.32,22.32,0,0,1-12.31,3.79,13,13,0,0,1-9.77-3.91q-3.8-3.9-3.8-11.5a46.74,46.74,0,0,1,2.53-14.6,61.75,61.75,0,0,1,6.67-14.15A41.16,41.16,0,0,1,528.66,239,18.41,18.41,0,0,1,540,234.89,10.42,10.42,0,0,1,550.39,245Zm-15.18-4.14q-5.3,0-9.43,4.6t-6,14.49q11-1.6,16.22-4.71t5.17-7a8.4,8.4,0,0,0-1.61-5.29A5.24,5.24,0,0,0,535.21,240.87Z"/><path d="M615.25,279.05a1.21,1.21,0,0,1,1.84,1.38,55.82,55.82,0,0,1-8.63,9.32q-4.71,4-8.85,4-7.14,0-7.13-9.2a63,63,0,0,1,2.76-17.36A113.59,113.59,0,0,1,602.83,248a6.45,6.45,0,0,0,.92-3.22c0-1.68-.77-2.53-2.3-2.53q-8.52,0-18.75,11.73t-19,36.8A3.91,3.91,0,0,1,561.2,293a10.75,10.75,0,0,1-3.91.8c-1.69,0-2.3-.69-1.84-2.07q3.9-9.88,8.16-22.31t7.48-24.61q.92-4.36-1.61-4.37a6.62,6.62,0,0,0-4.6,2.3,42.38,42.38,0,0,0-4.83,6c-.31.31-.66.23-1-.23a1.38,1.38,0,0,1-.34-1.38,44.71,44.71,0,0,1,6.9-8.05,13.5,13.5,0,0,1,9.43-4.14q5.75,0,3.91,7.82-.93,5.07-2.53,10.7t-3.45,11.15a72.09,72.09,0,0,1,7.59-11.73,63,63,0,0,1,9.08-9.43,48.1,48.1,0,0,1,9.43-6.21,20.34,20.34,0,0,1,8.86-2.3,6,6,0,0,1,4.25,1.38,4.26,4.26,0,0,1,1.5,3.22,14.13,14.13,0,0,1-1.38,6,118.66,118.66,0,0,0-8.17,18.29,53.74,53.74,0,0,0-3.33,17.59c0,3.84,1.22,5.75,3.68,5.75Q609.27,287.1,615.25,279.05Z"/></svg>