<svg id="Ebene_1" data-name="Ebene 1" xmlns="http://www.w3.org/2000/svg" viewBox="0 0 48.96 51"><title>esel</title><g id="Icon_Esel" data-name="Icon Esel"><path id="Pfad_8" data-name="Pfad 8" d="M47.72,17.11c-.95-1-2-1.95-2.9-3a4.08,4.08,0,0,1-.62-1.47,2,2,0,0,0-1-1.14s.1-.05.15-.05a.24.24,0,0,0,.12-.31.23.23,0,0,0-.12-.12,1.86,1.86,0,0,0-.39-.1,31.24,31.24,0,0,0,1.58-5.09c.19-.72.33-.81,1-1.29s1-.81,1.52-1.19a.3.3,0,0,0,0-.42.28.28,0,0,0-.21-.1,7.21,7.21,0,0,0-5.19,2.52,6.28,6.28,0,0,1,0-2.66A21.5,21.5,0,0,1,42.87.31c.1-.19-.15-.38-.34-.28-3,1.52-4.09,4.52-4.23,7.61,0,0-.1,0-.1-.1a.24.24,0,0,0-.33,0h0c-.23.24-.47.52-.71.76a.21.21,0,0,0-.29-.07.19.19,0,0,0-.09.12,2.92,2.92,0,0,1-.48.86c-.1,0-.14-.1-.24-.15a.23.23,0,0,0-.33.05.31.31,0,0,0,0,.1c0,.42-.28.38-.57.19h-.05a.23.23,0,0,0-.33.1c-.1.28-.24.62-.33.9-.1-.1-.24-.15-.33-.24a.25.25,0,0,0-.34,0,.47.47,0,0,0,0,.1c0,.43-.28.38-.57.19s-.38,0-.38.14a7.81,7.81,0,0,0-.1,1l-.38-.15a.24.24,0,0,0-.31.13.22.22,0,0,0,0,.11c.05.43-.19.43-.53.29a.23.23,0,0,0-.3.14.25.25,0,0,0,0,.19,3.61,3.61,0,0,1,.24.62c-.1,0-.15,0-.24.14s-.1.29-.14.34-.39.14-.53.23c-.38.24-.14.29-.38.57s-.29.24-.86.1c-.23-.1-.38.19-.28.39a2.59,2.59,0,0,1,.19.33.8.8,0,0,0-.24.38c-.05.1.05.33-.05.43-.19.28-.38,0-.57.24s-.1.28-.33.57-.34.23-.86.1c-.24-.05-.43.14-.29.38a2.91,2.91,0,0,1,.53.81c.05.14-.9.9-1.24,1.19a6.83,6.83,0,0,1-3.19,1.23,27.67,27.67,0,0,1-5.95.58c-3.76-.15-7.61-1.43-11.33-.43a5.85,5.85,0,0,0-4.46,5.8Q1,30.72,1,35.21c0,.71,0,1.38,0,2.09,0,.14-.05.81,0,.67-.14.33-.48.62-.62.9A3.22,3.22,0,0,0,0,40.2a2.06,2.06,0,0,0,.19,1.29c.29.52,1,.85,1.15,1.42,0,.15.14.24.28.19.57-.1,1.05-1,1.24-1.47a3.39,3.39,0,0,0-.1-2.72,7.72,7.72,0,0,1-.33-4,40.76,40.76,0,0,1,.67-6.43,15,15,0,0,0,2.09,4.1c.57.85.76,1.24.34,2.14a23.44,23.44,0,0,1-2,3.43,3,3,0,0,0-.39,2.38c.15,1.42.34,2.85.48,4.28.14,1.14.19,2.29.38,3.38A1.55,1.55,0,0,0,5.6,49.68h.14c1.24,0,2.76-.23,2.33-1.9-.24-1-.76-1.9-.9-3C7.07,44.2,7,43.58,6.93,43a1.85,1.85,0,0,1,.57-2A11.59,11.59,0,0,1,10,38.87c1.76-1.09,3.57-2.71,4.14-4.76.52.24,1.14.33,1.71.57A19.09,19.09,0,0,0,18,35.4a28.67,28.67,0,0,0,4.86.81c.05,2.95.1,5.95.1,8.9,0,1.38-.14,2.8-.05,4.19A1.37,1.37,0,0,0,25.5,50a1.24,1.24,0,0,0,.62.81,2.38,2.38,0,0,0,2.05,0c1.52-.71.47-3.09.42-4.24a34.89,34.89,0,0,1,.34-4c.19-2,.33-4,.52-6.09A5.56,5.56,0,0,1,29.59,35c.05,0,.53-.34.67-.43.62-.43,1.24-.81,1.81-1.24a3.86,3.86,0,0,0,1.66-2.43A9.79,9.79,0,0,1,34.59,28L36,25.45c.81-1.34,1.67-2.67,2.52-3.95.38-.53.53-.77,1.19-.72a18.93,18.93,0,0,1,2.24.34c.81.1,1.57.19,2.38.33s1.85.57,2.66.24A3.89,3.89,0,0,0,49,19,2.41,2.41,0,0,0,47.72,17.11Z"/></g></svg>